<?xml version="1.0" encoding="UTF-8"?>
<svg xmlns="http://www.w3.org/2000/svg" xmlns:xlink="http://www.w3.org/1999/xlink" viewBox="0 0 300 300">
  <defs>
    <style>
      .cls-1 {
        fill: url(#linear-gradient-12);
      }

      .cls-1, .cls-2, .cls-3, .cls-4, .cls-5, .cls-6, .cls-7, .cls-8, .cls-9, .cls-10, .cls-11, .cls-12, .cls-13, .cls-14, .cls-15, .cls-16, .cls-17, .cls-18, .cls-19, .cls-20 {
        stroke-width: 0px;
      }

      .cls-2 {
        fill: url(#linear-gradient-17);
      }

      .cls-3 {
        fill: url(#linear-gradient-19);
      }

      .cls-4 {
        fill: url(#linear-gradient);
      }

      .cls-5 {
        fill: url(#linear-gradient-6);
      }

      .cls-21 {
        isolation: isolate;
      }

      .cls-6 {
        fill: url(#linear-gradient-15);
      }

      .cls-7 {
        fill: url(#linear-gradient-11);
      }

      .cls-8 {
        fill: url(#linear-gradient-5);
      }

      .cls-9 {
        fill: url(#linear-gradient-13);
      }

      .cls-10 {
        fill: url(#linear-gradient-16);
      }

      .cls-11 {
        fill: url(#linear-gradient-14);
      }

      .cls-12 {
        fill: url(#linear-gradient-2);
      }

      .cls-13 {
        fill: url(#linear-gradient-7);
      }

      .cls-14 {
        fill: url(#linear-gradient-3);
      }

      .cls-15 {
        fill: url(#linear-gradient-9);
      }

      .cls-16 {
        fill: url(#linear-gradient-20);
      }

      .cls-16, .cls-19 {
        mix-blend-mode: screen;
        opacity: .23;
      }

      .cls-17 {
        fill: url(#linear-gradient-8);
      }

      .cls-18 {
        fill: url(#linear-gradient-18);
      }

      .cls-19 {
        fill: url(#linear-gradient-10);
      }

      .cls-20 {
        fill: url(#linear-gradient-4);
      }
    </style>
    <linearGradient id="linear-gradient" x1="-21.31" y1="134.92" x2="149.58" y2="-35.97" gradientTransform="translate(70.73 154.18) rotate(-56.52)" gradientUnits="userSpaceOnUse">
      <stop offset="0" stop-color="#afdec5"/>
      <stop offset=".99" stop-color="#70b8c2"/>
    </linearGradient>
    <linearGradient id="linear-gradient-2" x1="161.51" y1="1.63" x2="176.31" y2="1.63" gradientTransform="translate(-43.27 157.75) scale(.68 -1)" gradientUnits="userSpaceOnUse">
      <stop offset="0" stop-color="#e2f5f8"/>
      <stop offset=".99" stop-color="#b1d1df"/>
    </linearGradient>
    <linearGradient id="linear-gradient-3" x1="161.51" y1="33.37" x2="176.31" y2="33.37" gradientTransform="translate(-16.8 207) scale(.68 -1)" xlink:href="#linear-gradient-2"/>
    <linearGradient id="linear-gradient-4" x1="161.51" y1="65.11" x2="176.31" y2="65.11" gradientTransform="translate(9.67 256.24) scale(.68 -1)" xlink:href="#linear-gradient-2"/>
    <linearGradient id="linear-gradient-5" x1="161.51" y1="96.85" x2="176.31" y2="96.85" gradientTransform="translate(36.14 305.49) scale(.68 -1)" xlink:href="#linear-gradient-2"/>
    <linearGradient id="linear-gradient-6" x1="-31.11" y1="2.11" x2="-16.31" y2="2.11" gradientTransform="translate(160.04 49.42) scale(.68 -1)" xlink:href="#linear-gradient-2"/>
    <linearGradient id="linear-gradient-7" x1="-31.11" y1="33.85" x2="-16.31" y2="33.85" gradientTransform="translate(186.51 98.67) scale(.68 -1)" xlink:href="#linear-gradient-2"/>
    <linearGradient id="linear-gradient-8" x1="-31.11" y1="65.58" x2="-16.31" y2="65.58" gradientTransform="translate(212.98 147.92) scale(.68 -1)" xlink:href="#linear-gradient-2"/>
    <linearGradient id="linear-gradient-9" x1="-31.11" y1="97.32" x2="-16.31" y2="97.32" gradientTransform="translate(239.45 197.16) scale(.68 -1)" xlink:href="#linear-gradient-2"/>
    <linearGradient id="linear-gradient-10" x1="187.2" y1="315.22" x2="281.37" y2="221.05" gradientTransform="translate(-86.91 -140.16)" gradientUnits="userSpaceOnUse">
      <stop offset="0" stop-color="#70b8c2"/>
      <stop offset=".99" stop-color="#5279a3"/>
    </linearGradient>
    <linearGradient id="linear-gradient-11" x1="37.89" y1="292.59" x2="238.45" y2="92.02" gradientTransform="translate(-23.78 30.29) rotate(-11.52)" xlink:href="#linear-gradient"/>
    <linearGradient id="linear-gradient-12" x1="67.89" y1="136.15" x2="85.26" y2="136.15" gradientTransform="translate(11.61 287.59) scale(.68 -1)" xlink:href="#linear-gradient-2"/>
    <linearGradient id="linear-gradient-13" x1="67.89" y1="173.4" x2="85.26" y2="173.4" gradientTransform="translate(19.05 361.33) scale(.68 -1)" xlink:href="#linear-gradient-2"/>
    <linearGradient id="linear-gradient-14" x1="67.89" y1="210.65" x2="85.26" y2="210.65" gradientTransform="translate(26.49 435.08) scale(.68 -1)" xlink:href="#linear-gradient-2"/>
    <linearGradient id="linear-gradient-15" x1="67.89" y1="247.9" x2="85.26" y2="247.9" gradientTransform="translate(33.92 508.83) scale(.68 -1)" xlink:href="#linear-gradient-2"/>
    <linearGradient id="linear-gradient-16" x1="-158.18" y1="136.71" x2="-140.81" y2="136.71" gradientTransform="translate(315.58 258.05) scale(.68 -1)" xlink:href="#linear-gradient-2"/>
    <linearGradient id="linear-gradient-17" x1="-158.18" y1="173.96" x2="-140.81" y2="173.96" gradientTransform="translate(323.01 331.8) scale(.68 -1)" xlink:href="#linear-gradient-2"/>
    <linearGradient id="linear-gradient-18" x1="-158.18" y1="211.21" x2="-140.81" y2="211.21" gradientTransform="translate(330.45 405.54) scale(.68 -1)" xlink:href="#linear-gradient-2"/>
    <linearGradient id="linear-gradient-19" x1="-158.18" y1="248.46" x2="-140.81" y2="248.46" gradientTransform="translate(337.89 479.29) scale(.68 -1)" xlink:href="#linear-gradient-2"/>
    <linearGradient id="linear-gradient-20" x1="104.32" y1="181.24" x2="216.17" y2="69.39" gradientTransform="translate(-10.25 65.82)" xlink:href="#linear-gradient-10"/>
  </defs>
  <g class="cls-21">
    <g id="Layer_1" data-name="Layer 1">
      <g>
        <path class="cls-4" d="M183.45,44.96c1.09,5.38,4.24,10.34,9.17,13.6,8.55,5.65,19.67,4.38,26.74-2.47,1.98-1.91,4.99-2.25,7.28-.73l31.81,21.04c2.67,1.76,3.4,5.36,1.63,8.02l-108.69,164.32c-1.76,2.67-5.36,3.4-8.02,1.63l-31.81-21.04c-2.29-1.52-3.16-4.42-2.17-6.99,1.49-3.88,1.79-8.04.98-11.97-1.09-5.37-4.24-10.33-9.18-13.6s-10.73-4.22-16.1-3.13c-3.93.8-7.64,2.7-10.63,5.59-1.98,1.91-4.99,2.25-7.28.73l-30.89-20.43c-2.67-1.76-3.4-5.36-1.63-8.02L143.35,7.21c1.76-2.67,5.36-3.4,8.02-1.63l30.89,20.43c2.29,1.52,3.16,4.42,2.17,6.99-1.49,3.88-1.79,8.04-.98,11.97Z"/>
        <g>
          <rect class="cls-12" x="66.38" y="143.89" width="10.05" height="24.47" rx="4.87" ry="4.87" transform="translate(241 182.7) rotate(123.48)"/>
          <rect class="cls-14" x="92.85" y="161.39" width="10.05" height="24.47" rx="4.87" ry="4.87" transform="translate(296.68 187.79) rotate(123.48)"/>
          <rect class="cls-20" x="119.32" y="178.9" width="10.05" height="24.47" rx="4.87" ry="4.87" transform="translate(352.36 192.88) rotate(123.48)"/>
          <rect class="cls-8" x="145.79" y="196.41" width="10.05" height="24.47" rx="4.87" ry="4.87" transform="translate(408.03 197.97) rotate(123.48)"/>
          <rect class="cls-5" x="138.92" y="35.08" width="10.05" height="24.47" rx="4.87" ry="4.87" transform="translate(262.81 -46.63) rotate(123.48)"/>
          <rect class="cls-13" x="165.39" y="52.59" width="10.05" height="24.47" rx="4.87" ry="4.87" transform="translate(318.49 -41.54) rotate(123.48)"/>
          <rect class="cls-17" x="191.86" y="70.1" width="10.05" height="24.47" rx="4.87" ry="4.87" transform="translate(374.17 -36.45) rotate(123.48)"/>
          <rect class="cls-15" x="218.33" y="87.61" width="10.05" height="24.47" rx="4.87" ry="4.87" transform="translate(429.84 -31.36) rotate(123.48)"/>
        </g>
        <rect class="cls-19" x="105.16" y="68.38" width="84.43" height="119.2" rx="13.05" ry="13.05" transform="translate(335.42 75.67) rotate(123.48)"/>
        <g>
          <path class="cls-7" d="M248.83,152.18c-3.56,5.37-5.06,12.09-3.67,18.9,2.4,11.79,12.68,19.96,24.24,20.14,3.23.05,6.01,2.27,6.65,5.44l8.94,43.86c.75,3.68-1.62,7.27-5.3,8.02l-226.57,46.17c-3.68.75-7.27-1.62-8.02-5.3l-8.94-43.86c-.64-3.16,1.05-6.3,4-7.61,4.46-1.98,8.16-5.18,10.75-9.12,3.55-5.37,5.05-12.09,3.67-18.9s-5.4-12.41-10.77-15.96c-3.93-2.6-8.58-4.11-13.46-4.18-3.23-.05-6.01-2.27-6.65-5.44l-8.68-42.59c-.75-3.68,1.62-7.27,5.3-8.02l226.57-46.17c3.68-.75,7.27,1.62,8.02,5.3l8.68,42.59c.64,3.16-1.05,6.3-4,7.61-4.46,1.98-8.15,5.18-10.75,9.12Z"/>
          <g>
            <rect class="cls-1" x="57.7" y="137.08" width="11.79" height="28.71" rx="5.18" ry="5.18" transform="translate(156.15 287.13) rotate(168.48)"/>
            <rect class="cls-9" x="65.14" y="173.58" width="11.79" height="28.71" rx="5.18" ry="5.18" transform="translate(178.16 357.9) rotate(168.48)"/>
            <rect class="cls-11" x="72.58" y="210.08" width="11.79" height="28.71" rx="5.18" ry="5.18" transform="translate(200.17 428.68) rotate(168.48)"/>
            <rect class="cls-6" x="80.01" y="246.57" width="11.79" height="28.71" rx="5.18" ry="5.18" transform="translate(222.19 499.46) rotate(168.48)"/>
            <rect class="cls-10" x="208.2" y="106.98" width="11.79" height="28.71" rx="5.18" ry="5.18" transform="translate(448.1 197.49) rotate(168.48)"/>
            <rect class="cls-2" x="215.63" y="143.48" width="11.79" height="28.71" rx="5.18" ry="5.18" transform="translate(470.11 268.27) rotate(168.48)"/>
            <rect class="cls-18" x="223.07" y="179.98" width="11.79" height="28.71" rx="5.18" ry="5.18" transform="translate(492.12 339.05) rotate(168.48)"/>
            <rect class="cls-3" x="230.51" y="216.48" width="11.79" height="28.71" rx="5.18" ry="5.18" transform="translate(514.13 409.83) rotate(168.48)"/>
          </g>
          <rect class="cls-16" x="100.46" y="121.19" width="99.09" height="139.9" rx="13.05" ry="13.05" transform="translate(335.14 348.48) rotate(168.48)"/>
        </g>
      </g>
    </g>
  </g>
</svg>