<?xml version="1.0" encoding="UTF-8"?>
<svg xmlns="http://www.w3.org/2000/svg" xmlns:xlink="http://www.w3.org/1999/xlink" viewBox="0 0 300 300">
  <defs>
    <style>
      .cls-1 {
        fill: url(#linear-gradient);
      }

      .cls-1, .cls-2, .cls-3, .cls-4, .cls-5, .cls-6 {
        stroke-width: 0px;
      }

      .cls-7 {
        isolation: isolate;
      }

      .cls-2 {
        fill: url(#linear-gradient-5);
      }

      .cls-3 {
        fill: url(#linear-gradient-2);
      }

      .cls-4 {
        fill: url(#linear-gradient-3);
      }

      .cls-5 {
        fill: #5cabd6;
      }

      .cls-8 {
        mix-blend-mode: multiply;
        opacity: .27;
      }

      .cls-6 {
        fill: url(#linear-gradient-4);
      }
    </style>
    <linearGradient id="linear-gradient" x1="73.12" y1="234.5" x2="73.12" y2="162.26" gradientUnits="userSpaceOnUse">
      <stop offset="0" stop-color="#5f8db4"/>
      <stop offset="1" stop-color="#286494"/>
    </linearGradient>
    <linearGradient id="linear-gradient-2" x1="210.82" y1="236.16" x2="210.82" y2="165.8" xlink:href="#linear-gradient"/>
    <linearGradient id="linear-gradient-3" x1="72.83" y1="180.17" x2="72.83" y2="254.49" gradientUnits="userSpaceOnUse">
      <stop offset="0" stop-color="#5cabd6"/>
      <stop offset="1" stop-color="#5f8db4"/>
    </linearGradient>
    <linearGradient id="linear-gradient-4" x1="210.55" y1="183.23" x2="210.55" y2="255.61" xlink:href="#linear-gradient-3"/>
    <linearGradient id="linear-gradient-5" x1="151.48" y1="43.83" x2="151.48" y2="183.84" xlink:href="#linear-gradient-3"/>
  </defs>
  <g class="cls-7">
    <g id="Layer_1" data-name="Layer 1">
      <g>
        <path class="cls-1" d="M106.18,200.37c0,9.42-3.7,17.96-9.69,24.14-5.98,6.18-14.24,9.99-23.37,9.99-18.26,0-33.06-15.28-33.06-34.13,0-1.68.12-3.33.35-4.94,2.17-.38,4.4-.61,6.69-.67.53-.01,1.06-.02,1.59-.02,2.86,0,5.18-2.39,5.18-5.35v-27.13h37.87v27.13c0,2.96,2.32,5.35,5.18,5.35h.64c.53,0,1.06,0,1.59.02,2.29.06,4.52.29,6.69.67.23,1.61.35,3.27.35,4.94Z"/>
        <path class="cls-3" d="M243.02,202.92c0,9.18-3.61,17.49-9.43,23.51-5.83,6.02-13.87,9.73-22.76,9.73-17.78,0-32.2-14.89-32.2-33.24,0-1.63.11-3.25.34-4.82,2.11-.37,4.28-.59,6.51-.65.51-.01,1.03-.02,1.54-.02,2.79,0,5.05-2.33,5.05-5.21v-26.42h36.89v26.42c0,2.88,2.26,5.21,5.05,5.21h.63c.51,0,1.03,0,1.54.02,2.23.06,4.4.28,6.51.65.23,1.57.34,3.18.34,4.82Z"/>
        <g>
          <path class="cls-4" d="M105.55,194.86l-13.49-14.69c-.77,20.28-17.86,20.75-19.22,20.75-.19,0-.69,0-1.41-.08h0c-4.42-.44-17.13-3.23-17.79-20.67l-13.5,14.69c-20.64,3.61-35.33,20.95-35.33,40.36,0,3.43.46,6.94,1.43,10.44l2.44,8.82h128.35l2.44-8.82c6.45-23.28-9.61-46.56-33.9-50.8Z"/>
          <path class="cls-6" d="M242.41,197.54l-13.14-14.31c-.75,19.75-17.39,20.2-18.72,20.2-.19,0-.68,0-1.38-.08h0c-4.31-.43-16.69-3.15-17.33-20.13l-13.15,14.31c-20.1,3.51-34.41,20.4-34.41,39.31,0,3.34.45,6.76,1.39,10.17l2.38,8.59h125l2.38-8.59c6.28-22.68-9.36-45.35-33.02-49.48Z"/>
        </g>
        <g class="cls-8">
          <rect class="cls-5" x="207.54" y="203.89" width="6.88" height="52.29"/>
        </g>
        <path class="cls-2" d="M295.1,82.31l-6.76-34.13c-.6-3.02-3.52-4.94-6.42-4.18-21.03,5.47-34.06,15.33-41.97,24.25-4.02-1.48-8.35-2.3-12.86-2.3h-32.08c-4.28,0-8.39.73-12.22,2.07-7.93-8.86-20.92-18.59-41.77-24.02-2.9-.75-5.83,1.16-6.42,4.18l-6.76,34.13c-.12.61-.13,1.2-.06,1.78-7.7-20.69-27.11-35.39-49.87-35.39h-8.36c-29.5,0-53.41,24.69-53.41,55.15v6.28c-4.96,2.49-8.39,7.72-8.39,13.79,0,4.24,1.66,8.08,4.36,10.86,2.69,2.78,6.42,4.5,10.52,4.5,2.07,0,4.04-.43,5.82-1.22.14.89.28,1.79.39,2.69,1.34,11.65,7.09,21.96,15.52,29.2,2.88,2.47,6.07,4.58,9.5,6.25,5.98,2.95,12.71,4.59,19.82,4.59h0c6.42,0,12.53-1.35,18.05-3.77,4.44-1.94,8.51-4.58,12.06-7.77,8.01-7.19,13.44-17.21,14.75-28.5.11-1.02.27-2.03.44-3.04h.09c1.98,1,4.18,1.58,6.53,1.58,8.22,0,14.88-6.88,14.88-15.36,0-4.24-1.66-8.08-4.36-10.86-1.36-1.41-2.99-2.54-4.8-3.32v-5.89c0-6.14-.99-12.03-2.78-17.55,1.11,1.8,3.21,2.9,5.48,2.41,5.42-1.15,13.95-1.92,26.64-.59-2.46,5.21-3.85,11.07-3.85,17.26v10.54c-5.03,2.01-8.59,7.04-8.59,12.94,0,3.84,1.5,7.3,3.94,9.82,1.59,1.64,3.57,2.87,5.78,3.52,3.12,13.92,12.47,25.39,24.87,31.08,7.69,6.58,17.66,10.56,28.56,10.56h0c11.26,0,21.55-4.26,29.32-11.25,11.63-5.87,20.37-16.91,23.41-30.22,5.97-1.41,10.41-6.93,10.41-13.52,0-3.84-1.51-7.3-3.94-9.81-.37-.38-.76-.74-1.17-1.07-1.22-1-2.61-1.78-4.12-2.29v-10.3c0-6.16-1.37-11.98-3.81-17.17,13.13-1.44,21.91-.66,27.44.51,3.69.78,6.95-2.59,6.19-6.4Z"/>
        <g class="cls-8">
          <rect class="cls-5" x="69.75" y="201.37" width="7.06" height="53.69"/>
        </g>
      </g>
    </g>
  </g>
</svg>