<?xml version="1.0" encoding="UTF-8"?>
<svg id="Layer_1" data-name="Layer 1" xmlns="http://www.w3.org/2000/svg" xmlns:xlink="http://www.w3.org/1999/xlink" viewBox="0 0 500 500">
  <defs>
    <style>
      .cls-1 {
        fill: url(#linear-gradient-12);
      }

      .cls-1, .cls-2, .cls-3, .cls-4, .cls-5, .cls-6, .cls-7, .cls-8, .cls-9, .cls-10, .cls-11, .cls-12, .cls-13, .cls-14, .cls-15, .cls-16 {
        stroke-width: 0px;
      }

      .cls-2 {
        fill: url(#linear-gradient);
      }

      .cls-3 {
        fill: #ad6757;
      }

      .cls-4 {
        fill: url(#linear-gradient-6);
      }

      .cls-5 {
        fill: #516c87;
      }

      .cls-6 {
        fill: url(#linear-gradient-11);
      }

      .cls-7 {
        fill: url(#linear-gradient-5);
      }

      .cls-8 {
        fill: #563a32;
      }

      .cls-9 {
        fill: #302b25;
      }

      .cls-10 {
        fill: url(#linear-gradient-2);
      }

      .cls-11 {
        fill: url(#linear-gradient-7);
      }

      .cls-12 {
        fill: url(#linear-gradient-3);
      }

      .cls-13 {
        fill: url(#linear-gradient-9);
      }

      .cls-14 {
        fill: url(#linear-gradient-8);
      }

      .cls-15 {
        fill: url(#linear-gradient-10);
      }

      .cls-16 {
        fill: url(#linear-gradient-4);
      }
    </style>
    <linearGradient id="linear-gradient" x1="179.29" y1="367" x2="179.29" y2="265.04" gradientUnits="userSpaceOnUse">
      <stop offset="0" stop-color="#b57e51"/>
      <stop offset="1" stop-color="#dbb491"/>
    </linearGradient>
    <linearGradient id="linear-gradient-2" x1="181.31" y1="197.51" x2="181.31" y2="104" gradientUnits="userSpaceOnUse">
      <stop offset="0" stop-color="#4a4339"/>
      <stop offset="1" stop-color="#302b25"/>
    </linearGradient>
    <linearGradient id="linear-gradient-3" x1="179.66" y1="396" x2="179.66" y2="320.23" gradientUnits="userSpaceOnUse">
      <stop offset="0" stop-color="#6789a5"/>
      <stop offset="1" stop-color="#6789a5" stop-opacity="0"/>
    </linearGradient>
    <linearGradient id="linear-gradient-4" x1="149.76" y1="291.11" x2="149.76" y2="368.33" xlink:href="#linear-gradient-3"/>
    <linearGradient id="linear-gradient-5" x1="207.64" y1="291.11" x2="207.64" y2="368.33" xlink:href="#linear-gradient-3"/>
    <linearGradient id="linear-gradient-6" x1="180.11" y1="284.39" x2="180.11" y2="159.58" xlink:href="#linear-gradient"/>
    <linearGradient id="linear-gradient-7" x1="350.33" y1="362.34" x2="350.33" y2="117.46" gradientUnits="userSpaceOnUse">
      <stop offset="0" stop-color="#82492d"/>
      <stop offset="1" stop-color="#563a32"/>
    </linearGradient>
    <linearGradient id="linear-gradient-8" x1="349.7" y1="369.91" x2="349.7" y2="278.19" gradientUnits="userSpaceOnUse">
      <stop offset="0" stop-color="#c49a6e"/>
      <stop offset="1" stop-color="#ebd6b9"/>
    </linearGradient>
    <linearGradient id="linear-gradient-9" x1="350.44" y1="289.7" x2="350.44" y2="162.35" xlink:href="#linear-gradient-8"/>
    <linearGradient id="linear-gradient-10" x1="349.91" x2="349.91" y2="327.84" xlink:href="#linear-gradient-3"/>
    <linearGradient id="linear-gradient-11" x1="326.87" y1="301.64" x2="326.87" y2="371.11" xlink:href="#linear-gradient-3"/>
    <linearGradient id="linear-gradient-12" x1="371.46" y1="301.64" x2="371.46" y2="371.11" xlink:href="#linear-gradient-3"/>
  </defs>
  <path class="cls-2" d="M236.12,318.83c0,13.3-6.37,25.35-16.65,34.07-10.28,8.72-24.49,14.11-40.18,14.11-31.38,0-56.83-21.57-56.83-48.17,0-2.37.2-4.71.6-6.98,3.73-.53,7.56-.86,11.5-.94.9-.02,1.82-.03,2.73-.03,4.92,0,8.9-3.38,8.9-7.55v-38.29h65.1v38.29c0,4.17,3.98,7.55,8.9,7.55h1.1c.9,0,1.82,0,2.73.03,3.94.08,7.77.41,11.5.94.4,2.27.6,4.61.6,6.98Z"/>
  <path class="cls-10" d="M263.35,162.99v23.68c-1.91-.94-3.98-1.59-6.18-1.88,0-1.04-.13-2.07-.39-3.08-1.81,9.01-9.77,15.8-19.31,15.8-3.25,0-5.88-2.64-5.88-5.88v-30.41c-3.41-1.06-6.61-1.64-9.18-1.64h-84.05c-2.55,0-5.72.57-9.1,1.62v30.43c0,3.25-2.64,5.88-5.88,5.88-9.56,0-17.54-6.82-19.32-15.85-.25,1-.38,2.01-.38,3.04-1.53.16-3.01.49-4.41.97v-22.68c0-4.44,2.07-8.39,5.29-10.95v-2.17c0-25.34,20.54-45.87,45.87-45.87h80.49c14.01,0,25.37,11.36,25.37,25.37v18.89c0,.83-.15,1.61-.41,2.35,4.44,2.35,7.47,7.01,7.47,12.39Z"/>
  <path class="cls-9" d="M263.35,186.67v29.37H99.26v-30.36c1.4-.49,2.88-.81,4.41-.97,0-1.03.13-2.05.38-3.04,1.78,9.03,9.76,15.85,19.32,15.85,3.25,0,5.88-2.64,5.88-5.88v-30.43c3.38-1.05,6.55-1.62,9.1-1.62h84.05c2.58,0,5.78.58,9.18,1.64v30.41c0,3.25,2.64,5.88,5.88,5.88,9.55,0,17.5-6.79,19.31-15.8.26,1.01.39,2.04.39,3.08,2.2.29,4.27.94,6.18,1.88Z"/>
  <path class="cls-5" d="M293.53,383.55l-4.2,12.45H68.23l-4.2-12.45c-1.67-4.94-2.47-9.89-2.47-14.73,0-27.4,25.31-51.88,60.86-56.97l23.25-20.74c1.14,24.6,23.03,28.54,30.65,29.17h.01c1.24.1,2.1.11,2.43.11,2.34,0,31.78-.65,33.11-29.28l23.24,20.74c41.84,5.99,69.5,38.84,58.4,71.7Z"/>
  <rect class="cls-12" x="173.58" y="320.23" width="12.16" height="75.77"/>
  <path class="cls-16" d="M162.01,362.05c1.06,5.37-6.82,8.52-10.93,4.36-.11-.12-.23-.23-.35-.35-12.01-12.16-27.58-54.22-27.58-54.22l22.96-20.74c1.12,24.6,22.74,28.54,30.27,29.17-.28.14-9.37,4.69-15.82,8.37-3.84,2.19-1.3,19.47,1.45,33.4Z"/>
  <path class="cls-7" d="M195.39,362.05c-1.06,5.37,6.82,8.52,10.93,4.36.11-.12.23-.23.35-.35,12.01-12.16,27.58-54.22,27.58-54.22l-22.96-20.74c-1.12,24.6-22.74,28.54-30.27,29.17.28.14,9.37,4.69,15.82,8.37,3.84,2.19,1.3,19.47-1.45,33.4Z"/>
  <path class="cls-4" d="M274.59,204.7c0,11.12-9,20.11-20.1,20.11-2.95,0-5.74-.64-8.26-1.78-.31,1.6-.56,3.21-.75,4.83-3.78,31.81-20.06,56.52-65.36,56.52h0c-39.38,0-61.57-24.71-65.36-56.52-.19-1.62-.44-3.24-.74-4.83-2.52,1.14-5.31,1.78-8.26,1.78-5.55,0-10.58-2.25-14.22-5.88-3.64-3.64-5.89-8.67-5.89-14.23,0-5.2,1.98-9.94,5.22-13.51,2.27-2.5,5.15-4.42,8.41-5.52,1.4-.49,2.88-.81,4.41-.97,0-1.03.13-2.05.38-3.04,1.78,9.03,9.76,15.85,19.32,15.85,3.25,0,5.88-2.64,5.88-5.88v-30.43c3.38-1.05,6.55-1.62,9.1-1.62h84.05c2.58,0,5.78.58,9.18,1.64v30.41c0,3.25,2.64,5.88,5.88,5.88,9.55,0,17.5-6.79,19.31-15.8.26,1.01.39,2.04.39,3.08,2.2.29,4.27.94,6.18,1.88,2.17,1.06,4.12,2.51,5.76,4.24,3.4,3.6,5.48,8.45,5.48,13.79Z"/>
  <g>
    <rect class="cls-8" x="140.94" y="189.62" width="21.21" height="21.21" rx="10.6" ry="10.6"/>
    <rect class="cls-8" x="198.08" y="189.62" width="21.21" height="21.21" rx="10.6" ry="10.6"/>
  </g>
  <path class="cls-3" d="M179.85,258.07c-5.36,0-10.32-2.71-13.97-7.64-1.23-1.66-.88-4,.78-5.23,1.66-1.23,4-.88,5.23.78,2.21,2.98,5.03,4.62,7.96,4.62s5.76-1.64,7.96-4.62l.52-.7c1.23-1.66,3.57-2.01,5.23-.78,1.66,1.23,2.01,3.57.78,5.23l-.52.7c-3.65,4.93-8.61,7.64-13.97,7.64Z"/>
  <path class="cls-11" d="M429.04,170.35c-10.38-25.45-32.74-44.73-60.08-50.83-5.99-1.35-12.23-2.05-18.63-2.05-.32,0-.64,0-.96,0-21.63.24-41.33,8.56-56.21,22.09-17.09,15.55-27.82,37.97-27.82,62.89v159.88h169.98v-159.88c0-11.36-2.23-22.2-6.28-32.1ZM412.94,224.01c-.96,2.37-1.73,4.81-2.35,7.3-.61,2.48-1.05,5.01-1.35,7.55-3.41,28.62-28.43,50.84-58.8,50.84h0c-30.36,0-55.39-22.22-58.8-50.84-.61-5.09-1.78-10.1-3.7-14.84-2.69-6.66-4.06-13.72-4.06-20.76,0-7.96,1.75-15.9,5.33-23.18,3.08-6.29,7.1-12.02,11.87-17.04,6.1,7.14,15.16,11.65,25.28,11.65,9.18,0,17.49-3.72,23.5-9.74.82-.82,1.61-1.69,2.34-2.6,4.15,18.15,20.38,31.69,39.79,31.69,8.35,0,16.1-2.5,22.56-6.8,3.78,11.95,3.16,24.99-1.61,36.77Z"/>
  <path class="cls-14" d="M393.04,326.58c0,11.97-4.86,22.8-12.7,30.65-7.84,7.84-18.67,12.69-30.64,12.69-23.93,0-43.34-19.4-43.34-43.34,0-2.13.15-4.23.45-6.28,2.84-.48,5.76-.77,8.77-.85.69-.02,1.39-.03,2.08-.03,3.75,0,6.79-3.04,6.79-6.79v-34.44h49.65v34.44c0,3.75,3.04,6.79,6.79,6.79h.84c.69,0,1.39,0,2.08.03,3,.08,5.92.37,8.77.85.3,2.04.45,4.15.45,6.28Z"/>
  <path class="cls-13" d="M417.34,199.93c-.15,0-.3.02-.45.02-.26-4.3-1.03-8.57-2.34-12.71-6.46,4.3-14.21,6.8-22.56,6.8-19.41,0-35.65-13.54-39.79-31.69-.73.91-1.51,1.78-2.34,2.6-6.02,6.02-14.32,9.74-23.5,9.74-10.12,0-19.18-4.52-25.28-11.65-4.77,5.02-8.79,10.75-11.87,17.04-3.08,6.28-4.8,13.04-5.22,19.88-.15,0-.29-.02-.44-.02-9.99,0-18.09,8.1-18.09,18.09h0c0,9.99,8.1,18.09,18.09,18.09,2.65,0,5.16-.58,7.43-1.61.27,1.44.5,2.89.67,4.35,3.41,28.62,28.43,50.84,58.8,50.84h0c30.36,0,55.39-22.22,58.8-50.84.17-1.46.4-2.91.67-4.35,2.27,1.02,4.78,1.61,7.43,1.61,9.99,0,18.09-8.1,18.09-18.09h0c0-9.99-8.1-18.09-18.09-18.09Z"/>
  <g>
    <rect class="cls-8" x="308.47" y="199.93" width="22.72" height="22.72" rx="11.36" ry="11.36"/>
    <rect class="cls-8" x="369.69" y="199.93" width="22.72" height="22.72" rx="11.36" ry="11.36"/>
  </g>
  <path class="cls-3" d="M350.2,266.03c-4.82,0-9.28-2.44-12.57-6.87-1.11-1.49-.79-3.6.7-4.71,1.49-1.11,3.6-.79,4.71.7,1.98,2.68,4.53,4.15,7.16,4.15s5.18-1.47,7.16-4.15l.46-.63c1.11-1.49,3.21-1.81,4.71-.7,1.49,1.11,1.81,3.21.7,4.71l-.46.63c-3.29,4.43-7.75,6.87-12.57,6.87Z"/>
  <path class="cls-5" d="M436.56,384.8l-3.2,11.2h-168.25l-3.2-11.2c-1.27-4.44-1.88-8.89-1.88-13.25,0-24.65,19.26-46.67,46.32-51.25l17.7-18.66c.87,22.13,17.53,25.67,23.33,26.24h0c.94.09,1.6.1,1.85.1,1.78,0,24.18-.59,25.19-26.34l17.69,18.66c31.84,5.39,52.89,34.94,44.44,64.5Z"/>
  <rect class="cls-15" x="345.28" y="327.84" width="9.26" height="68.16"/>
  <path class="cls-6" d="M336.3,365.46c.82,4.83-5.25,7.66-8.42,3.93-.09-.1-.18-.21-.27-.32-9.26-10.94-21.26-48.77-21.26-48.77l17.7-18.66c.87,22.13,17.53,25.67,23.33,26.24-.22.13-7.22,4.22-12.19,7.53-2.96,1.97-1,17.51,1.12,30.05Z"/>
  <path class="cls-1" d="M362.03,365.46c-.82,4.83,5.25,7.66,8.42,3.93.09-.1.18-.21.27-.32,9.26-10.94,21.26-48.77,21.26-48.77l-17.7-18.66c-.87,22.13-17.53,25.67-23.33,26.24.22.13,7.22,4.22,12.19,7.53,2.96,1.97,1,17.51-1.12,30.05Z"/>
</svg>