<?xml version="1.0" encoding="UTF-8"?>
<svg id="Layer_1" data-name="Layer 1" xmlns="http://www.w3.org/2000/svg" xmlns:xlink="http://www.w3.org/1999/xlink" viewBox="0 0 500 500">
  <defs>
    <style>
      .cls-1 {
        fill: url(#linear-gradient-12);
      }

      .cls-1, .cls-2, .cls-3, .cls-4, .cls-5, .cls-6, .cls-7, .cls-8, .cls-9, .cls-10, .cls-11, .cls-12, .cls-13, .cls-14, .cls-15, .cls-16 {
        stroke-width: 0px;
      }

      .cls-2 {
        fill: url(#linear-gradient);
      }

      .cls-3, .cls-4 {
        fill: #ad6757;
      }

      .cls-4 {
        opacity: .43;
      }

      .cls-5 {
        fill: url(#linear-gradient-6);
      }

      .cls-6 {
        fill: #516c87;
      }

      .cls-7 {
        fill: url(#linear-gradient-11);
      }

      .cls-8 {
        fill: url(#linear-gradient-5);
      }

      .cls-9 {
        fill: #563a32;
      }

      .cls-10 {
        fill: url(#linear-gradient-2);
      }

      .cls-11 {
        fill: url(#linear-gradient-7);
      }

      .cls-12 {
        fill: url(#linear-gradient-3);
      }

      .cls-13 {
        fill: url(#linear-gradient-9);
      }

      .cls-14 {
        fill: url(#linear-gradient-8);
      }

      .cls-15 {
        fill: url(#linear-gradient-10);
      }

      .cls-16 {
        fill: url(#linear-gradient-4);
      }
    </style>
    <linearGradient id="linear-gradient" x1="329.15" y1="285.41" x2="329.15" y2="111.59" gradientUnits="userSpaceOnUse">
      <stop offset="0" stop-color="#302823"/>
      <stop offset="1" stop-color="#52443f"/>
    </linearGradient>
    <linearGradient id="linear-gradient-2" x1="328.29" y1="362.33" x2="328.29" y2="270.6" gradientUnits="userSpaceOnUse">
      <stop offset="0" stop-color="#bd8b64"/>
      <stop offset="1" stop-color="#f2ca9c"/>
    </linearGradient>
    <linearGradient id="linear-gradient-3" x1="329.03" y1="294.11" x2="329.03" y2="180.4" xlink:href="#linear-gradient-2"/>
    <linearGradient id="linear-gradient-4" x1="328.5" y1="388.41" x2="328.5" y2="320.25" gradientUnits="userSpaceOnUse">
      <stop offset="0" stop-color="#6789a5"/>
      <stop offset="1" stop-color="#6789a5" stop-opacity="0"/>
    </linearGradient>
    <linearGradient id="linear-gradient-5" x1="305.46" y1="294.06" x2="305.46" y2="363.52" xlink:href="#linear-gradient-4"/>
    <linearGradient id="linear-gradient-6" x1="350.06" y1="294.06" x2="350.06" y2="363.52" xlink:href="#linear-gradient-4"/>
    <linearGradient id="linear-gradient-7" x1="148.59" y1="125.91" x2="148.59" y2="238.91" gradientUnits="userSpaceOnUse">
      <stop offset="0" stop-color="#edd398"/>
      <stop offset="1" stop-color="#c29d69"/>
    </linearGradient>
    <linearGradient id="linear-gradient-8" x1="147.79" y1="361.83" x2="147.79" y2="270.1" gradientUnits="userSpaceOnUse">
      <stop offset="0" stop-color="#c49a6e"/>
      <stop offset="1" stop-color="#ebd6b9"/>
    </linearGradient>
    <linearGradient id="linear-gradient-9" x1="149.09" y1="293.61" x2="149.09" y2="159.14" xlink:href="#linear-gradient-8"/>
    <linearGradient id="linear-gradient-10" x1="148" y1="387.91" x2="148" y2="319.75" xlink:href="#linear-gradient-4"/>
    <linearGradient id="linear-gradient-11" x1="124.96" y1="293.56" x2="124.96" y2="363.02" xlink:href="#linear-gradient-4"/>
    <linearGradient id="linear-gradient-12" x1="169.56" y1="293.56" x2="169.56" y2="363.02" xlink:href="#linear-gradient-4"/>
  </defs>
  <g>
    <path class="cls-2" d="M441.72,161.75l-9.09-44.5c-.81-3.94-4.74-6.44-8.65-5.45-28.31,7.14-45.84,19.98-56.5,31.61-5.41-1.93-11.24-3-17.31-3h-43.18c-5.76,0-11.29.95-16.45,2.7-10.68-11.55-28.16-24.23-56.22-31.31-3.9-.98-7.84,1.51-8.65,5.45l-9.09,44.5c-1.02,4.97,3.37,9.37,8.33,8.35,7.3-1.5,18.78-2.5,35.86-.78-3.32,6.8-5.18,14.43-5.18,22.5v34.66c0,4.59.52,9.05,1.52,13.34,4.2,18.15,16.79,33.1,33.47,40.52,7.31,3.26,15.42,5.07,23.94,5.07h28.14c9.27,0,18.04-2.14,25.84-5.96,15.66-7.65,27.42-22.04,31.51-39.39,1.04-4.36,1.58-8.91,1.58-13.58v-34.66c0-8.03-1.85-15.62-5.13-22.39,17.67-1.88,29.49-.86,36.93.66,4.97,1.02,9.35-3.38,8.33-8.35Z"/>
    <path class="cls-10" d="M371.63,318.99c0,11.97-4.86,22.8-12.7,30.65-7.84,7.84-18.67,12.69-30.64,12.69-23.93,0-43.34-19.4-43.34-43.34,0-2.13.15-4.23.45-6.28,2.84-.48,5.76-.77,8.77-.85.69-.02,1.39-.03,2.08-.03,3.75,0,6.79-3.04,6.79-6.79v-34.44h49.65v34.44c0,3.75,3.04,6.79,6.79,6.79h.84c.69,0,1.39,0,2.08.03,3,.08,5.92.37,8.77.85.3,2.04.45,4.15.45,6.28Z"/>
    <path class="cls-12" d="M414.02,222.43c0,8.6-5.98,15.79-14.01,17.63-1.31.31-2.68.47-4.08.47-2.66,0-5.16-.59-7.43-1.61-.27,1.44-.5,2.89-.67,4.35-1.71,14.33-8.83,27.05-19.33,36.18-10.47,9.11-24.31,14.66-39.47,14.66h-.01c-14.67,0-28.09-5.19-38.44-13.77-11.06-9.19-18.59-22.28-20.35-37.07-.18-1.46-.4-2.91-.67-4.35-2.27,1.02-4.78,1.61-7.43,1.61-1.74,0-3.43-.25-5.02-.71-2.98-.85-5.64-2.45-7.78-4.59-3.28-3.28-5.3-7.8-5.3-12.8,0-7.69,4.79-14.25,11.56-16.87,2.03-.79,4.23-1.22,6.54-1.22.15,0,.29.02.44.02.42-6.84,2.13-13.6,5.22-19.88.68-1.39,1.41-2.75,2.18-4.08,9.23,15.57,26.21,26.01,45.62,26.01,7.13,0,13.93-1.41,20.14-3.96,9.68,10.43,23.51,16.96,38.86,16.96,9.87,0,19.09-2.69,27-7.39v-6.77c2.04.67,3.91,1.69,5.55,2.99.56.43,1.08.9,1.58,1.4,3.27,3.27,5.3,7.79,5.3,12.79Z"/>
    <g>
      <rect class="cls-9" x="283.06" y="220.34" width="25.05" height="25.05" rx="12.52" ry="12.52"/>
      <rect class="cls-9" x="350.54" y="220.34" width="25.05" height="25.05" rx="12.52" ry="12.52"/>
    </g>
    <path class="cls-3" d="M328.79,268.45c-4.82,0-9.28-2.44-12.57-6.87-1.11-1.49-.79-3.6.7-4.71,1.49-1.11,3.6-.79,4.71.7,1.98,2.68,4.53,4.15,7.16,4.15s5.18-1.47,7.16-4.15l.46-.63c1.11-1.49,3.21-1.81,4.71-.7,1.49,1.11,1.81,3.21.7,4.71l-.46.63c-3.29,4.43-7.75,6.87-12.57,6.87Z"/>
    <path class="cls-6" d="M415.15,377.21l-3.2,11.2h-168.25l-3.2-11.2c-1.27-4.44-1.88-8.89-1.88-13.25,0-24.65,19.26-46.67,46.32-51.25l17.7-18.66c.87,22.13,17.53,25.67,23.33,26.24h0c.94.09,1.6.1,1.85.1,1.78,0,24.18-.59,25.19-26.34l17.69,18.66c31.84,5.39,52.89,34.94,44.44,64.5Z"/>
    <rect class="cls-16" x="323.87" y="320.25" width="9.26" height="68.16"/>
    <path class="cls-8" d="M314.89,357.87c.82,4.83-5.25,7.66-8.42,3.93-.09-.1-.18-.21-.27-.32-9.26-10.94-21.26-48.77-21.26-48.77l17.7-18.66c.87,22.13,17.53,25.67,23.33,26.24-.22.13-7.22,4.22-12.19,7.53-2.96,1.97-1,17.51,1.12,30.05Z"/>
    <path class="cls-5" d="M340.62,357.87c-.82,4.83,5.25,7.66,8.42,3.93.09-.1.18-.21.27-.32,9.26-10.94,21.26-48.77,21.26-48.77l-17.7-18.66c-.87,22.13-17.53,25.67-23.33,26.24.22.13,7.22,4.22,12.19,7.53,2.96,1.97,1,17.51-1.12,30.05Z"/>
    <rect class="cls-4" x="361.59" y="244.41" width="22" height="22" rx="11" ry="11"/>
    <rect class="cls-4" x="274.59" y="244.41" width="22" height="22" rx="11" ry="11"/>
  </g>
  <g>
    <path class="cls-11" d="M139.59,125.91h18c36.7,0,66.5,29.8,66.5,66.5v46.5H73.09v-46.5c0-36.7,29.8-66.5,66.5-66.5Z"/>
    <g>
      <path class="cls-14" d="M191.13,318.49c0,11.97-4.86,22.8-12.7,30.65-7.84,7.84-18.67,12.69-30.64,12.69-23.93,0-43.34-19.4-43.34-43.34,0-2.13.15-4.23.45-6.28,2.84-.48,5.76-.77,8.77-.85.69-.02,1.39-.03,2.08-.03,3.75,0,6.79-3.04,6.79-6.79v-34.44h49.65v34.44c0,3.75,3.04,6.79,6.79,6.79h.84c.69,0,1.39,0,2.08.03,3,.08,5.92.37,8.77.85.3,2.04.45,4.15.45,6.28Z"/>
      <path class="cls-13" d="M236.09,221.41c0,10.77-8.73,19.5-19.5,19.5-3.12,0-6.05-.75-8.67-2.05-.23,1.3-.44,2.6-.59,3.91-1.71,14.33-8.83,27.05-19.33,36.18-4.66,4.06-9.99,7.41-15.81,9.87-7.24,3.08-15.25,4.79-23.66,4.79h-.01c-9.32,0-18.14-2.09-25.98-5.83-4.5-2.13-8.69-4.81-12.46-7.94-11.06-9.19-18.59-22.28-20.35-37.07-.14-1.14-.32-2.28-.51-3.41-2.34,1-4.92,1.55-7.63,1.55-5.38,0-10.26-2.18-13.79-5.71-3.53-3.53-5.71-8.41-5.71-13.79,0-10.04,7.59-18.28,17.34-19.36,4.85,1.22,9.93,1.86,15.16,1.86,17.26,0,32.88-7,44.2-18.3,7.27-7.28,12.76-16.34,15.74-26.47,11.45,14.48,29.17,23.77,49.06,23.77,2.15,0,4.28-.11,6.38-.32,2.51,6.07,4.17,12.6,4.81,19.41.6-.05,1.2-.09,1.81-.09,5.38,0,10.26,2.18,13.79,5.71s5.71,8.41,5.71,13.79Z"/>
      <g>
        <rect class="cls-9" x="106.56" y="219.84" width="25.05" height="25.05" rx="12.52" ry="12.52"/>
        <rect class="cls-9" x="166.04" y="219.84" width="25.05" height="25.05" rx="12.52" ry="12.52"/>
      </g>
      <path class="cls-3" d="M148.29,267.95c-4.82,0-9.28-2.44-12.57-6.87-1.11-1.49-.79-3.6.7-4.71,1.49-1.11,3.6-.79,4.71.7,1.98,2.68,4.53,4.15,7.16,4.15s5.18-1.47,7.16-4.15l.46-.63c1.11-1.49,3.21-1.81,4.71-.7,1.49,1.11,1.81,3.21.7,4.71l-.46.63c-3.29,4.43-7.75,6.87-12.57,6.87Z"/>
      <path class="cls-6" d="M234.65,376.71l-3.2,11.2H63.2l-3.2-11.2c-1.27-4.44-1.88-8.89-1.88-13.25,0-24.65,19.26-46.67,46.32-51.25l17.7-18.66c.87,22.13,17.53,25.67,23.33,26.24h0c.94.09,1.6.1,1.85.1,1.78,0,24.18-.59,25.19-26.34l17.69,18.66c31.84,5.39,52.89,34.94,44.44,64.5Z"/>
      <rect class="cls-15" x="143.37" y="319.75" width="9.26" height="68.16"/>
      <path class="cls-7" d="M134.39,357.37c.82,4.83-5.25,7.66-8.42,3.93-.09-.1-.18-.21-.27-.32-9.26-10.94-21.26-48.77-21.26-48.77l17.7-18.66c.87,22.13,17.53,25.67,23.33,26.24-.22.13-7.22,4.22-12.19,7.53-2.96,1.97-1,17.51,1.12,30.05Z"/>
      <path class="cls-1" d="M160.12,357.37c-.82,4.83,5.25,7.66,8.42,3.93.09-.1.18-.21.27-.32,9.26-10.94,21.26-48.77,21.26-48.77l-17.7-18.66c-.87,22.13-17.53,25.67-23.33,26.24.22.13,7.22,4.22,12.19,7.53,2.96,1.97,1,17.51-1.12,30.05Z"/>
      <rect class="cls-4" x="181.09" y="243.91" width="22" height="22" rx="11" ry="11"/>
      <rect class="cls-4" x="94.09" y="243.91" width="22" height="22" rx="11" ry="11"/>
    </g>
  </g>
</svg>