<?xml version="1.0" encoding="UTF-8"?>
<svg xmlns="http://www.w3.org/2000/svg" xmlns:xlink="http://www.w3.org/1999/xlink" viewBox="0 0 561.37 561.37">
  <defs>
    <style>
      .cls-1 {
        fill: url(#linear-gradient);
      }

      .cls-1, .cls-2 {
        stroke-width: 0px;
      }

      .cls-3 {
        stroke: url(#linear-gradient-3);
      }

      .cls-3, .cls-4, .cls-5, .cls-6 {
        fill: none;
        stroke-linecap: round;
        stroke-miterlimit: 10;
        stroke-width: 17.96px;
      }

      .cls-7 {
        isolation: isolate;
      }

      .cls-4 {
        stroke: url(#linear-gradient-6);
      }

      .cls-5 {
        stroke: url(#linear-gradient-5);
      }

      .cls-6 {
        stroke: url(#linear-gradient-4);
      }

      .cls-2 {
        fill: url(#linear-gradient-2);
        mix-blend-mode: multiply;
      }
    </style>
    <linearGradient id="linear-gradient" x1="21.35" y1="310.13" x2="540.02" y2="310.13" gradientUnits="userSpaceOnUse">
      <stop offset="0" stop-color="#ffc08c"/>
      <stop offset="1" stop-color="#fac036"/>
    </linearGradient>
    <linearGradient id="linear-gradient-2" x1="354.83" y1="362.75" x2="376.96" y2="281" gradientUnits="userSpaceOnUse">
      <stop offset="0" stop-color="#e4be89"/>
      <stop offset=".88" stop-color="#e48c15"/>
    </linearGradient>
    <linearGradient id="linear-gradient-3" x1="268.46" y1="83.58" x2="372.03" y2="83.58" gradientUnits="userSpaceOnUse">
      <stop offset="0" stop-color="#807872"/>
      <stop offset="1" stop-color="#444"/>
    </linearGradient>
    <linearGradient id="linear-gradient-4" x1="332.06" y1="57.38" x2="409.75" y2="57.38" xlink:href="#linear-gradient-3"/>
    <linearGradient id="linear-gradient-5" x1="162.6" y1="456.31" x2="41.92" y2="456.31" xlink:href="#linear-gradient-3"/>
    <linearGradient id="linear-gradient-6" x1="143.83" y1="507.02" x2="26.52" y2="507.02" xlink:href="#linear-gradient-3"/>
  </defs>
  <g class="cls-7">
    <g id="Layer_1" data-name="Layer 1">
      <g>
        <g>
          <path class="cls-1" d="M168.89,350.59c-4.94,4.63-9.93-.9-9.93-.9,0,0-83-87.94-88.39-91.89-7.59-5.52-23.85-14.19-40.11,2.56-6.78,6.96-17.83,22.46,2.69,47.43,4.45,5.39,133.75,141.65,141.29,149.02,0,0,59.73,58.12,95.89,79.99,10.02,6.06,21.29,12.49,34.45,16.98,13.11,4.49,27.94,7.59,43.56,7.59,15.63.18,31.84-2.83,47.16-8.44,15.32-5.66,29.6-13.88,42.58-23.35,3.19-2.43,6.42-4.85,9.43-7.46l8.71-7.19c6.06-5.08,11.72-10.42,17.16-15.85,10.91-10.87,20.75-22.5,29.42-34.4,8.62-11.95,15.94-24.3,21.78-36.6,5.84-12.31,9.93-24.66,12.4-36.33,2.6-11.63,3.32-22.64,2.92-32.25-.09-9.61-2.02-17.83-3.59-24.39-1.8-6.56-3.73-11.45-5.25-14.69-1.48-3.23-2.29-4.94-2.29-4.94h0c-2.07-5.79-4.04-11.32-5.79-16.3-4.94-14.06-10.64-29.82-16.57-46.04-2.52-6.87-3.68-9.97-3.68-9.97l.04.13c-21.78-59.15-45.18-120.1-45.18-120.1-3.55-10.73-16.62-14.46-26.23-7.55-27.76,19.94-36.24,49.04-26.45,80.08l25.11,68.81c3.55,7.68-6.24,16.57-12.8,11.23-20.61-16.8-64.22-63.1-64.22-63.1-19.49-18.68-129.48-131.46-136.85-138.33-14.82-13.79-33.5-20.88-47.74-10.42-14.55,10.69-18.59,27.22-4.54,45.27,3.82,4.9,114.98,122.34,114.98,122.34,6.47,6.78-1.17,16.39-8.31,9.79,0,0-138.29-144.26-144.53-151-14.15-15.36-36.87-18.73-50.35-6.06-13.16,12.35-12.84,32.61,1.53,48.51,4.58,5.03,102,107.88,140.98,150.01,2.6,2.83,4.63,6.6.76,10.15-.04.04-3.95,4.27-8.98-1.12-10.6-11.32-116.46-121.62-122.34-127.6-13.52-13.74-31.66-20.26-46.26-6.87-13.29,12.17-15.45,33.41-.18,48.42l128.22,135.55s4.18,4.94-.49,9.3Z"/>
          <path class="cls-2" d="M377.06,237.59l10.82,11.59s-61.93,59.78-19.72,151.58c0,0,5.48,11.63-1.71,13.56,0,0-6.29,3.5-13.47-14.37,0-.04-42.62-87.22,24.07-162.36Z"/>
        </g>
        <path class="cls-3" d="M277.44,39.07s26.09,3.95,50.26,29.82c24.16,25.91,35.35,59.19,35.35,59.19"/>
        <path class="cls-6" d="M341.04,8.98s21.87,11,38.76,38.18c16.89,27.17,20.97,58.61,20.97,58.61"/>
        <path class="cls-5" d="M153.62,490.58s-26.32,1.75-55.47-18.37-47.25-50.21-47.25-50.21"/>
        <path class="cls-4" d="M134.85,534.73s-24.43,1.03-52.46-14.46-46.89-40.96-46.89-40.96"/>
      </g>
    </g>
  </g>
</svg>